<svg width="761" height="820" viewBox="0 0 761 820" fill="none" xmlns="http://www.w3.org/2000/svg">
<g clip-path="url(#clip0_3834_59580)">
<rect width="761" height="820" fill="#F5F5F5"/>
<path d="M263.688 98.6V104.35H274.938V111.8H263.688V118.15H276.438V126H253.888V90.75H276.438V98.6H263.688ZM279.68 111.95C279.68 109.05 280.197 106.517 281.23 104.35C282.297 102.183 283.747 100.517 285.58 99.35C287.414 98.1833 289.447 97.6 291.68 97.6C293.48 97.6 295.08 97.9833 296.48 98.75C297.914 99.4833 299.03 100.5 299.83 101.8V89H309.68V126H299.83V122.1C299.064 123.4 297.98 124.433 296.58 125.2C295.18 125.967 293.53 126.35 291.63 126.35C289.397 126.35 287.364 125.767 285.53 124.6C283.73 123.433 282.297 121.767 281.23 119.6C280.197 117.4 279.68 114.85 279.68 111.95ZM299.88 111.95C299.88 110.15 299.38 108.733 298.38 107.7C297.414 106.667 296.214 106.15 294.78 106.15C293.314 106.15 292.097 106.667 291.13 107.7C290.164 108.7 289.68 110.117 289.68 111.95C289.68 113.75 290.164 115.183 291.13 116.25C292.097 117.283 293.314 117.8 294.78 117.8C296.214 117.8 297.414 117.283 298.38 116.25C299.38 115.217 299.88 113.783 299.88 111.95ZM343.965 97.95V126H334.115V122C333.282 123.267 332.132 124.3 330.665 125.1C329.198 125.867 327.515 126.25 325.615 126.25C322.348 126.25 319.765 125.183 317.865 123.05C315.998 120.883 315.065 117.95 315.065 114.25V97.95H324.815V113C324.815 114.6 325.232 115.867 326.065 116.8C326.932 117.7 328.065 118.15 329.465 118.15C330.898 118.15 332.032 117.7 332.865 116.8C333.698 115.867 334.115 114.6 334.115 113V97.95H343.965ZM347.942 111.95C347.942 109.05 348.542 106.517 349.742 104.35C350.942 102.183 352.609 100.517 354.742 99.35C356.909 98.1833 359.376 97.6 362.142 97.6C365.709 97.6 368.709 98.5833 371.142 100.55C373.576 102.483 375.142 105.2 375.842 108.7H365.442C364.842 106.867 363.676 105.95 361.942 105.95C360.709 105.95 359.726 106.467 358.992 107.5C358.292 108.5 357.942 109.983 357.942 111.95C357.942 113.917 358.292 115.417 358.992 116.45C359.726 117.483 360.709 118 361.942 118C363.709 118 364.876 117.083 365.442 115.25H375.842C375.142 118.717 373.576 121.433 371.142 123.4C368.709 125.367 365.709 126.35 362.142 126.35C359.376 126.35 356.909 125.767 354.742 124.6C352.609 123.433 350.942 121.767 349.742 119.6C348.542 117.433 347.942 114.883 347.942 111.95ZM378.313 111.95C378.313 109.05 378.83 106.517 379.863 104.35C380.93 102.183 382.363 100.517 384.163 99.35C385.997 98.1833 388.03 97.6 390.263 97.6C392.197 97.6 393.863 97.9833 395.263 98.75C396.663 99.5167 397.747 100.55 398.513 101.85V97.95H408.313V126H398.513V122.1C397.747 123.4 396.647 124.433 395.213 125.2C393.813 125.967 392.163 126.35 390.263 126.35C388.03 126.35 385.997 125.767 384.163 124.6C382.363 123.433 380.93 121.767 379.863 119.6C378.83 117.4 378.313 114.85 378.313 111.95ZM398.513 111.95C398.513 110.15 398.013 108.733 397.013 107.7C396.047 106.667 394.847 106.15 393.413 106.15C391.947 106.15 390.73 106.667 389.763 107.7C388.797 108.7 388.313 110.117 388.313 111.95C388.313 113.75 388.797 115.183 389.763 116.25C390.73 117.283 391.947 117.8 393.413 117.8C394.847 117.8 396.047 117.283 397.013 116.25C398.013 115.217 398.513 113.783 398.513 111.95ZM430.448 117.65V126H426.198C419.031 126 415.448 122.45 415.448 115.35V106.1H411.998V97.95H415.448V91.15H425.298V97.95H430.398V106.1H425.298V115.5C425.298 116.267 425.464 116.817 425.798 117.15C426.164 117.483 426.764 117.65 427.598 117.65H430.448ZM439.893 95.35C438.159 95.35 436.759 94.8833 435.693 93.95C434.659 92.9833 434.143 91.7833 434.143 90.35C434.143 88.8833 434.659 87.6667 435.693 86.7C436.759 85.7333 438.159 85.25 439.893 85.25C441.593 85.25 442.959 85.7333 443.993 86.7C445.059 87.6667 445.593 88.8833 445.593 90.35C445.593 91.7833 445.059 92.9833 443.993 93.95C442.959 94.8833 441.593 95.35 439.893 95.35ZM444.743 97.95V126H434.943V97.95H444.743ZM463.373 126.35C460.573 126.35 458.057 125.767 455.823 124.6C453.623 123.433 451.89 121.767 450.623 119.6C449.357 117.433 448.723 114.883 448.723 111.95C448.723 109.05 449.357 106.517 450.623 104.35C451.923 102.183 453.673 100.517 455.873 99.35C458.107 98.1833 460.623 97.6 463.423 97.6C466.223 97.6 468.723 98.1833 470.923 99.35C473.157 100.517 474.907 102.183 476.173 104.35C477.473 106.517 478.123 109.05 478.123 111.95C478.123 114.85 477.473 117.4 476.173 119.6C474.907 121.767 473.157 123.433 470.923 124.6C468.69 125.767 466.173 126.35 463.373 126.35ZM463.373 117.85C464.74 117.85 465.873 117.35 466.773 116.35C467.707 115.317 468.173 113.85 468.173 111.95C468.173 110.05 467.707 108.6 466.773 107.6C465.873 106.6 464.757 106.1 463.423 106.1C462.09 106.1 460.973 106.6 460.073 107.6C459.173 108.6 458.723 110.05 458.723 111.95C458.723 113.883 459.157 115.35 460.023 116.35C460.89 117.35 462.007 117.85 463.373 117.85ZM500.461 97.7C503.694 97.7 506.261 98.7833 508.161 100.95C510.061 103.083 511.011 105.983 511.011 109.65V126H501.211V110.95C501.211 109.35 500.794 108.1 499.961 107.2C499.127 106.267 498.011 105.8 496.611 105.8C495.144 105.8 493.994 106.267 493.161 107.2C492.327 108.1 491.911 109.35 491.911 110.95V126H482.111V97.95H491.911V101.95C492.777 100.683 493.944 99.6667 495.411 98.9C496.877 98.1 498.561 97.7 500.461 97.7ZM541.108 106.1H536.708V126H526.858V106.1H523.808V97.95H526.858V97.7C526.858 94.1 527.908 91.35 530.008 89.45C532.142 87.5167 535.192 86.55 539.158 86.55C539.958 86.55 540.575 86.5667 541.008 86.6V94.95C540.742 94.9167 540.375 94.9 539.908 94.9C538.842 94.9 538.058 95.15 537.558 95.65C537.058 96.1167 536.775 96.8833 536.708 97.95H541.108V106.1ZM557.661 126.35C554.861 126.35 552.344 125.767 550.111 124.6C547.911 123.433 546.177 121.767 544.911 119.6C543.644 117.433 543.011 114.883 543.011 111.95C543.011 109.05 543.644 106.517 544.911 104.35C546.211 102.183 547.961 100.517 550.161 99.35C552.394 98.1833 554.911 97.6 557.711 97.6C560.511 97.6 563.011 98.1833 565.211 99.35C567.444 100.517 569.194 102.183 570.461 104.35C571.761 106.517 572.411 109.05 572.411 111.95C572.411 114.85 571.761 117.4 570.461 119.6C569.194 121.767 567.444 123.433 565.211 124.6C562.977 125.767 560.461 126.35 557.661 126.35ZM557.661 117.85C559.027 117.85 560.161 117.35 561.061 116.35C561.994 115.317 562.461 113.85 562.461 111.95C562.461 110.05 561.994 108.6 561.061 107.6C560.161 106.6 559.044 106.1 557.711 106.1C556.377 106.1 555.261 106.6 554.361 107.6C553.461 108.6 553.011 110.05 553.011 111.95C553.011 113.883 553.444 115.35 554.311 116.35C555.177 117.35 556.294 117.85 557.661 117.85ZM586.198 102.9C587.298 101.3 588.631 100.033 590.198 99.1C591.764 98.1667 593.448 97.7 595.248 97.7V108.15H592.498C590.364 108.15 588.781 108.567 587.748 109.4C586.714 110.233 586.198 111.683 586.198 113.75V126H576.398V97.95H586.198V102.9ZM606.731 111.95C606.731 109.05 607.248 106.517 608.281 104.35C609.348 102.183 610.781 100.517 612.581 99.35C614.415 98.1833 616.448 97.6 618.681 97.6C620.615 97.6 622.281 97.9833 623.681 98.75C625.081 99.5167 626.165 100.55 626.931 101.85V97.95H636.731V126H626.931V122.1C626.165 123.4 625.065 124.433 623.631 125.2C622.231 125.967 620.581 126.35 618.681 126.35C616.448 126.35 614.415 125.767 612.581 124.6C610.781 123.433 609.348 121.767 608.281 119.6C607.248 117.4 606.731 114.85 606.731 111.95ZM626.931 111.95C626.931 110.15 626.431 108.733 625.431 107.7C624.465 106.667 623.265 106.15 621.831 106.15C620.365 106.15 619.148 106.667 618.181 107.7C617.215 108.7 616.731 110.117 616.731 111.95C616.731 113.75 617.215 115.183 618.181 116.25C619.148 117.283 620.365 117.8 621.831 117.8C623.265 117.8 624.465 117.283 625.431 116.25C626.431 115.217 626.931 113.783 626.931 111.95ZM652.116 89V126H642.316V89H652.116ZM667.496 89V126H657.696V89H667.496ZM683.627 117.6L678.277 132.2H672.077L674.677 117.6H683.627ZM407.952 186.95C407.952 184.05 408.469 181.517 409.502 179.35C410.569 177.183 412.002 175.517 413.802 174.35C415.635 173.183 417.669 172.6 419.902 172.6C421.835 172.6 423.502 172.983 424.902 173.75C426.302 174.517 427.385 175.55 428.152 176.85V172.95H437.952V201H428.152V197.1C427.385 198.4 426.285 199.433 424.852 200.2C423.452 200.967 421.802 201.35 419.902 201.35C417.669 201.35 415.635 200.767 413.802 199.6C412.002 198.433 410.569 196.767 409.502 194.6C408.469 192.4 407.952 189.85 407.952 186.95ZM428.152 186.95C428.152 185.15 427.652 183.733 426.652 182.7C425.685 181.667 424.485 181.15 423.052 181.15C421.585 181.15 420.369 181.667 419.402 182.7C418.435 183.7 417.952 185.117 417.952 186.95C417.952 188.75 418.435 190.183 419.402 191.25C420.369 192.283 421.585 192.8 423.052 192.8C424.485 192.8 425.685 192.283 426.652 191.25C427.652 190.217 428.152 188.783 428.152 186.95ZM461.886 172.7C465.12 172.7 467.686 173.783 469.586 175.95C471.486 178.083 472.436 180.983 472.436 184.65V201H462.636V185.95C462.636 184.35 462.22 183.1 461.386 182.2C460.553 181.267 459.436 180.8 458.036 180.8C456.57 180.8 455.42 181.267 454.586 182.2C453.753 183.1 453.336 184.35 453.336 185.95V201H443.536V172.95H453.336V176.95C454.203 175.683 455.37 174.667 456.836 173.9C458.303 173.1 459.986 172.7 461.886 172.7ZM508.014 172.95L490.214 214.35H479.564L486.264 199.8L474.764 172.95H485.664L491.564 188.85L497.264 172.95H508.014ZM552.027 172.95L544.877 201H533.877L529.977 184L525.927 201H514.977L507.877 172.95H517.627L520.777 191.55L524.927 172.95H535.427L539.727 191.6L542.827 172.95H552.027ZM573.266 172.7C576.466 172.7 578.999 173.783 580.866 175.95C582.766 178.083 583.716 180.983 583.716 184.65V201H573.916V185.95C573.916 184.35 573.499 183.1 572.666 182.2C571.832 181.267 570.716 180.8 569.316 180.8C567.849 180.8 566.699 181.267 565.866 182.2C565.032 183.1 564.616 184.35 564.616 185.95V201H554.816V164H564.616V176.95C565.482 175.683 566.649 174.667 568.116 173.9C569.616 173.1 571.332 172.7 573.266 172.7ZM615.893 186.65C615.893 187.417 615.843 188.183 615.743 188.95H597.193C597.293 190.483 597.71 191.633 598.443 192.4C599.21 193.133 600.176 193.5 601.343 193.5C602.976 193.5 604.143 192.767 604.843 191.3H615.293C614.86 193.233 614.01 194.967 612.743 196.5C611.51 198 609.943 199.183 608.043 200.05C606.143 200.917 604.043 201.35 601.743 201.35C598.976 201.35 596.51 200.767 594.343 199.6C592.21 198.433 590.526 196.767 589.293 194.6C588.093 192.433 587.493 189.883 587.493 186.95C587.493 184.017 588.093 181.483 589.293 179.35C590.493 177.183 592.16 175.517 594.293 174.35C596.46 173.183 598.943 172.6 601.743 172.6C604.51 172.6 606.96 173.167 609.093 174.3C611.226 175.433 612.893 177.067 614.093 179.2C615.293 181.3 615.893 183.783 615.893 186.65ZM605.893 184.2C605.893 183 605.493 182.067 604.693 181.4C603.893 180.7 602.893 180.35 601.693 180.35C600.493 180.35 599.51 180.683 598.743 181.35C597.976 181.983 597.476 182.933 597.243 184.2H605.893ZM629.704 177.9C630.804 176.3 632.137 175.033 633.704 174.1C635.27 173.167 636.954 172.7 638.754 172.7V183.15H636.004C633.87 183.15 632.287 183.567 631.254 184.4C630.22 185.233 629.704 186.683 629.704 188.75V201H619.904V172.95H629.704V177.9ZM669.067 186.65C669.067 187.417 669.017 188.183 668.917 188.95H650.367C650.467 190.483 650.883 191.633 651.617 192.4C652.383 193.133 653.35 193.5 654.517 193.5C656.15 193.5 657.317 192.767 658.017 191.3H668.467C668.033 193.233 667.183 194.967 665.917 196.5C664.683 198 663.117 199.183 661.217 200.05C659.317 200.917 657.217 201.35 654.917 201.35C652.15 201.35 649.683 200.767 647.517 199.6C645.383 198.433 643.7 196.767 642.467 194.6C641.267 192.433 640.667 189.883 640.667 186.95C640.667 184.017 641.267 181.483 642.467 179.35C643.667 177.183 645.333 175.517 647.467 174.35C649.633 173.183 652.117 172.6 654.917 172.6C657.683 172.6 660.133 173.167 662.267 174.3C664.4 175.433 666.067 177.067 667.267 179.2C668.467 181.3 669.067 183.783 669.067 186.65ZM659.067 184.2C659.067 183 658.667 182.067 657.867 181.4C657.067 180.7 656.067 180.35 654.867 180.35C653.667 180.35 652.683 180.683 651.917 181.35C651.15 181.983 650.65 182.933 650.417 184.2H659.067ZM683.627 192.6L678.277 207.2H672.077L674.677 192.6H683.627ZM403.881 261.65C403.881 262.417 403.831 263.183 403.731 263.95H385.181C385.281 265.483 385.698 266.633 386.431 267.4C387.198 268.133 388.165 268.5 389.331 268.5C390.965 268.5 392.131 267.767 392.831 266.3H403.281C402.848 268.233 401.998 269.967 400.731 271.5C399.498 273 397.931 274.183 396.031 275.05C394.131 275.917 392.031 276.35 389.731 276.35C386.965 276.35 384.498 275.767 382.331 274.6C380.198 273.433 378.515 271.767 377.281 269.6C376.081 267.433 375.481 264.883 375.481 261.95C375.481 259.017 376.081 256.483 377.281 254.35C378.481 252.183 380.148 250.517 382.281 249.35C384.448 248.183 386.931 247.6 389.731 247.6C392.498 247.6 394.948 248.167 397.081 249.3C399.215 250.433 400.881 252.067 402.081 254.2C403.281 256.3 403.881 258.783 403.881 261.65ZM393.881 259.2C393.881 258 393.481 257.067 392.681 256.4C391.881 255.7 390.881 255.35 389.681 255.35C388.481 255.35 387.498 255.683 386.731 256.35C385.965 256.983 385.465 257.933 385.231 259.2H393.881ZM421.342 266.75L426.592 247.95H437.042L427.392 276H415.192L405.542 247.95H415.992L421.342 266.75ZM467.163 261.65C467.163 262.417 467.113 263.183 467.013 263.95H448.463C448.563 265.483 448.979 266.633 449.713 267.4C450.479 268.133 451.446 268.5 452.613 268.5C454.246 268.5 455.413 267.767 456.113 266.3H466.563C466.129 268.233 465.279 269.967 464.013 271.5C462.779 273 461.213 274.183 459.313 275.05C457.413 275.917 455.313 276.35 453.013 276.35C450.246 276.35 447.779 275.767 445.613 274.6C443.479 273.433 441.796 271.767 440.563 269.6C439.363 267.433 438.763 264.883 438.763 261.95C438.763 259.017 439.363 256.483 440.563 254.35C441.763 252.183 443.429 250.517 445.563 249.35C447.729 248.183 450.213 247.6 453.013 247.6C455.779 247.6 458.229 248.167 460.363 249.3C462.496 250.433 464.163 252.067 465.363 254.2C466.563 256.3 467.163 258.783 467.163 261.65ZM457.163 259.2C457.163 258 456.763 257.067 455.963 256.4C455.163 255.7 454.163 255.35 452.963 255.35C451.763 255.35 450.779 255.683 450.013 256.35C449.246 256.983 448.746 257.933 448.513 259.2H457.163ZM480.973 252.9C482.073 251.3 483.406 250.033 484.973 249.1C486.54 248.167 488.223 247.7 490.023 247.7V258.15H487.273C485.14 258.15 483.556 258.567 482.523 259.4C481.49 260.233 480.973 261.683 480.973 263.75V276H471.173V247.95H480.973V252.9ZM523.736 247.95L505.936 289.35H495.286L501.986 274.8L490.486 247.95H501.386L507.286 263.85L512.986 247.95H523.736ZM567.75 247.95L560.6 276H549.6L545.7 259L541.65 276H530.7L523.6 247.95H533.35L536.5 266.55L540.65 247.95H551.15L555.45 266.6L558.55 247.95H567.75ZM588.988 247.7C592.188 247.7 594.722 248.783 596.588 250.95C598.488 253.083 599.438 255.983 599.438 259.65V276H589.638V260.95C589.638 259.35 589.222 258.1 588.388 257.2C587.555 256.267 586.438 255.8 585.038 255.8C583.572 255.8 582.422 256.267 581.588 257.2C580.755 258.1 580.338 259.35 580.338 260.95V276H570.538V239H580.338V251.95C581.205 250.683 582.372 249.667 583.838 248.9C585.338 248.1 587.055 247.7 588.988 247.7ZM631.616 261.65C631.616 262.417 631.566 263.183 631.466 263.95H612.916C613.016 265.483 613.432 266.633 614.166 267.4C614.932 268.133 615.899 268.5 617.066 268.5C618.699 268.5 619.866 267.767 620.566 266.3H631.016C630.582 268.233 629.732 269.967 628.466 271.5C627.232 273 625.666 274.183 623.766 275.05C621.866 275.917 619.766 276.35 617.466 276.35C614.699 276.35 612.232 275.767 610.066 274.6C607.932 273.433 606.249 271.767 605.016 269.6C603.816 267.433 603.216 264.883 603.216 261.95C603.216 259.017 603.816 256.483 605.016 254.35C606.216 252.183 607.882 250.517 610.016 249.35C612.182 248.183 614.666 247.6 617.466 247.6C620.232 247.6 622.682 248.167 624.816 249.3C626.949 250.433 628.616 252.067 629.816 254.2C631.016 256.3 631.616 258.783 631.616 261.65ZM621.616 259.2C621.616 258 621.216 257.067 620.416 256.4C619.616 255.7 618.616 255.35 617.416 255.35C616.216 255.35 615.232 255.683 614.466 256.35C613.699 256.983 613.199 257.933 612.966 259.2H621.616ZM645.426 252.9C646.526 251.3 647.86 250.033 649.426 249.1C650.993 248.167 652.676 247.7 654.476 247.7V258.15H651.726C649.593 258.15 648.01 258.567 646.976 259.4C645.943 260.233 645.426 261.683 645.426 263.75V276H635.626V247.95H645.426V252.9ZM684.789 261.65C684.789 262.417 684.739 263.183 684.639 263.95H666.089C666.189 265.483 666.606 266.633 667.339 267.4C668.106 268.133 669.073 268.5 670.239 268.5C671.873 268.5 673.039 267.767 673.739 266.3H684.189C683.756 268.233 682.906 269.967 681.639 271.5C680.406 273 678.839 274.183 676.939 275.05C675.039 275.917 672.939 276.35 670.639 276.35C667.873 276.35 665.406 275.767 663.239 274.6C661.106 273.433 659.423 271.767 658.189 269.6C656.989 267.433 656.389 264.883 656.389 261.95C656.389 259.017 656.989 256.483 658.189 254.35C659.389 252.183 661.056 250.517 663.189 249.35C665.356 248.183 667.839 247.6 670.639 247.6C673.406 247.6 675.856 248.167 677.989 249.3C680.123 250.433 681.789 252.067 682.989 254.2C684.189 256.3 684.789 258.783 684.789 261.65ZM674.789 259.2C674.789 258 674.389 257.067 673.589 256.4C672.789 255.7 671.789 255.35 670.589 255.35C669.389 255.35 668.406 255.683 667.639 256.35C666.873 256.983 666.373 257.933 666.139 259.2H674.789Z" fill="#595151"/>
<path d="M14.4415 152.68L243.65 429.179L527.427 209.046L402.577 545.796L735.106 681.487L381.047 741.739L429.799 1097.56L200.591 821.065L-83.1864 1041.2L41.6639 704.448L-290.865 568.756L63.1936 508.505L14.4415 152.68Z" fill="#EA4726" fill-opacity="0.1"/>
<path d="M370.597 527.084C370.597 527.084 382.698 554.169 400.066 589.778C400.066 589.778 479.969 609.461 521.033 631.203C521.033 631.203 506.95 652.563 493.02 663.548C493.02 663.548 389.975 669.071 345.883 648.543C345.883 648.543 309.698 586.819 294.402 546.781C279.106 506.743 347.934 497.712 370.611 527.084H370.597Z" fill="#C46341"/>
<path d="M282.613 381.843C282.613 381.843 341.822 396.744 391.965 535.023C391.965 535.023 342.189 549.481 309.067 557.215C309.067 557.215 281.546 420.835 282.613 381.836V381.843Z" fill="#B2AB77"/>
<path d="M332.084 622.919C332.084 622.919 328.536 577.073 329.097 560.793C330.386 523.285 334.544 487.647 318.874 423.768C314.349 405.326 298.63 385.539 282.613 381.845C173.934 356.777 124.242 374.512 84.6263 429.694C84.6263 429.694 54.2078 474.479 40 554.424C40 554.424 100.816 566.116 171.883 571.446L171.966 622.912C171.966 622.912 258.37 649.263 332.084 622.912V622.919Z" fill="#B2AB77"/>
<path d="M311.93 434.848C324.599 477.194 330.871 514.148 329.942 540.436C329.041 566.093 329.776 587.224 329.776 587.224L331.273 610.407" stroke="#2C0C04" stroke-linecap="round" stroke-linejoin="round"/>
<path d="M332.084 608.906C332.084 608.906 354.892 667.304 353.971 687.61C353.971 687.61 133.937 797.766 112.792 756.161C74.5627 680.936 123.735 586.098 123.735 586.098L332.084 608.906Z" fill="#BACAD6"/>
<path d="M310.28 664.581C310.28 664.581 520.589 597.825 583.339 638.494C665.55 691.777 667.914 786.442 400.731 813.416C136.64 840.078 237.848 667.277 310.28 664.588V664.581Z" fill="#BACAD6"/>
<path d="M448.213 666.992C448.213 666.992 358.912 704.334 329.983 707.64" stroke="#2C0C04" stroke-linecap="round" stroke-linejoin="round"/>
<path d="M611.2 661.434C611.2 661.434 614.991 732.417 448.206 807.503" stroke="#2C0C04" stroke-linecap="round" stroke-linejoin="round"/>
<path d="M334.87 657.34C334.87 657.34 413.754 636.216 493.013 625.355" stroke="#2C0C04" stroke-linecap="round" stroke-linejoin="round"/>
<path d="M133.514 790.049C133.514 790.049 120.422 819.213 161.209 819.213C201.995 819.213 277.082 792.537 277.082 792.537C277.082 792.537 159.726 737.321 133.514 790.049Z" fill="#B2AB77"/>
<path d="M506.833 635.816H336.825C333.637 635.816 331.052 638.401 331.052 641.59V651.57C331.052 654.758 333.637 657.343 336.825 657.343H506.833C510.021 657.343 512.606 654.758 512.606 651.57V641.59C512.606 638.401 510.021 635.816 506.833 635.816Z" fill="#E6A861"/>
<path d="M593.771 657.343H419.75C414.094 657.343 410.421 651.383 412.965 646.33L472.533 527.983C473.823 525.419 476.449 523.797 479.318 523.797H653.339C658.995 523.797 662.668 529.757 660.124 534.81L600.556 653.157C599.267 655.721 596.64 657.336 593.771 657.336V657.343Z" fill="#E6A861"/>
<path d="M338.647 635.816H593.382" stroke="#2C0C04" stroke-linecap="round" stroke-linejoin="round"/>
<path d="M550.654 595.014C554.397 585.937 552.595 576.585 546.628 574.125C540.662 571.665 532.792 577.028 529.049 586.105C525.306 595.181 527.108 604.534 533.074 606.994C539.04 609.454 546.911 604.09 550.654 595.014Z" stroke="#2C0C04" stroke-linecap="round" stroke-linejoin="round"/>
<path d="M479.104 533.996L433.341 625.355" stroke="#2C0C04" stroke-linecap="round" stroke-linejoin="round"/>
<path d="M78.5753 560.832C78.5753 560.832 78.3535 605.729 91.39 645.892C103.81 684.162 143.924 653.903 303.204 649.073C303.204 649.073 316.684 633.666 319.47 597.391C319.47 597.391 244.959 590.516 180.899 578.276C180.899 578.276 181.329 593.801 180.837 571.602C180.837 571.602 139.994 570.514 78.5684 560.832H78.5753Z" fill="#C46341"/>
<path d="M198.413 441.195C198.413 441.195 205.877 532.437 205.877 572.253C205.877 572.253 169.311 572.801 123.735 566.633" stroke="#2C0C04" stroke-linecap="round" stroke-linejoin="round"/>
<path d="M282.058 600.68L281.726 648.439C281.726 648.439 319.858 654.295 333.047 630.322C333.047 630.322 354.338 645.59 363.306 637.897C363.306 637.897 373.307 643.026 382.15 637.641C382.15 637.641 390.481 643.282 399.2 636.615C399.2 636.615 413.296 642.257 416.374 631.487C419.451 620.716 376.64 603.542 360.742 595.08C344.85 586.618 328.182 593.798 319.47 597.388C310.751 600.978 296.321 600.909 282.058 600.673V600.68Z" fill="#C46341"/>
<path d="M352.474 639.582C342.293 637.974 328.986 627.793 328.986 627.793C312.768 641.017 300.778 635.729 300.778 635.729" stroke="#2C0C04" stroke-linecap="round" stroke-linejoin="round"/>
<path d="M363.305 637.899C363.305 637.899 371.823 631.496 331.806 613.164" stroke="#2C0C04" stroke-linecap="round" stroke-linejoin="round"/>
<path d="M382.15 637.638C382.15 637.638 393.503 627.79 345.91 607.164" stroke="#2C0C04" stroke-linecap="round" stroke-linejoin="round"/>
<path d="M399.2 636.616C399.2 636.616 409.901 623.912 357.547 603.113" stroke="#2C0C04" stroke-linecap="round" stroke-linejoin="round"/>
<path d="M303.841 595.548C303.841 595.548 315.637 598.653 322.034 596.068C342.472 587.8 354.15 591.771 360.741 595.084C360.741 595.084 401.223 614.316 409.761 621.268C418.3 628.219 420.04 634.526 409.761 637.894" stroke="#2C0C04" stroke-linecap="round" stroke-linejoin="round"/>
<path d="M407.411 819.214H541.65C580.212 819.214 598.627 809.761 606.07 801.16C616.328 789.316 625.636 729.595 583.4 734.966C496.747 745.992 477.688 767.907 426.942 745.126L407.404 819.208L407.411 819.214Z" fill="#B2AB77"/>
<path d="M231.014 640.383C207.609 634.437 182.915 635.65 160.467 644.763C135.905 654.73 112.181 662.929 103.504 703.466C98.8953 724.985 105.798 755.979 126.583 771.58C175.097 807.986 288.15 826.408 444.075 818.216C444.075 818.216 463.321 777.894 468.422 756.166C468.422 756.166 365.842 674.634 231.021 640.39L231.014 640.383Z" fill="#BACAD6"/>
<path d="M468.415 756.16C468.415 756.16 368.35 680.201 266.852 650.773" stroke="#2C0C04" stroke-linecap="round" stroke-linejoin="round"/>
<path d="M455.511 792.534C455.511 792.534 158.048 748.213 118.045 678.324" stroke="#2C0C04" stroke-linecap="round" stroke-linejoin="round"/>
<path d="M120.227 673.809C100.281 711.178 122.958 761.003 122.958 761.003C122.958 761.003 129.05 778.53 158.637 789.314" stroke="#2C0C04" stroke-linecap="round" stroke-linejoin="round"/>
<path d="M328.48 303.35C326.263 314.813 321.016 326.498 303.142 323.039C287.597 320.032 284.762 306.78 286.98 295.317C289.198 283.854 296.704 272.973 312.249 275.974C327.42 278.905 330.698 291.886 328.48 303.343V303.35Z" fill="#BACAD6"/>
<path d="M318.167 323.827C316.157 344.827 299.586 364.039 270.838 355.874L265.598 386.584C265.598 386.584 254.031 394.914 231.826 391.276C208.026 387.381 195.918 375.599 195.918 375.599L217.098 307.187C215.15 307.443 213.064 307.041 213.064 307.041C213.064 307.041 198.766 304.588 205.628 283.775C212.087 264.189 222.157 271.57 222.157 271.57L226.135 256.115C226.135 256.115 234.286 225.565 282.26 232.378C319.415 237.652 320.919 269.886 320.919 269.886C320.919 269.886 319.865 306.147 318.174 323.827H318.167Z" fill="#C46341"/>
<mask id="mask0_3834_59580" style="mask-type:luminance" maskUnits="userSpaceOnUse" x="301" y="269" width="20" height="17">
<path d="M320.911 269.888L320.371 285.385C320.371 285.385 301.603 286.958 301.014 279.466C301.014 279.466 303.003 267.524 320.911 269.888Z" fill="white"/>
</mask>
<g mask="url(#mask0_3834_59580)">
<path d="M334.045 287.367C332.978 284.858 331.536 283 329.762 281.282C328.009 279.591 325.93 278.295 323.733 277.297C321.501 276.43 319.158 275.8 316.809 275.668C315.624 275.536 314.466 275.668 313.288 275.668C312.131 275.807 310.987 275.98 309.844 276.202C307.959 276.569 306.669 278.53 306.974 280.582C307.259 282.515 308.853 283.839 310.62 283.673L310.904 283.645C312.761 283.465 314.591 283.208 316.393 283.257C318.202 283.215 319.962 283.472 321.702 283.867C323.448 284.255 325.105 284.99 326.713 285.891C328.293 286.771 329.894 288.067 331.107 289.307L331.322 289.529C332.001 290.222 333.068 290.174 333.72 289.418C334.212 288.843 334.316 288.025 334.038 287.367H334.045Z" fill="#2C0C04"/>
</g>
<mask id="mask1_3834_59580" style="mask-type:luminance" maskUnits="userSpaceOnUse" x="295" y="286" width="26" height="30">
<path d="M320.308 286.954C320.308 286.954 320.031 298.432 318.818 315.911C318.818 315.911 303.204 316.472 297.652 309.68C295.088 306.54 294.866 301.128 295.289 293.206C295.289 293.206 301.741 283.032 320.308 286.954Z" fill="white"/>
</mask>
<g mask="url(#mask1_3834_59580)">
<path d="M332.63 302.411C332.63 302.411 317.39 281.799 299.356 299.978C299.356 299.978 303.494 310.131 314.437 312.162C325.381 314.186 332.63 302.411 332.63 302.411Z" fill="white"/>
<mask id="mask2_3834_59580" style="mask-type:luminance" maskUnits="userSpaceOnUse" x="299" y="292" width="34" height="21">
<path d="M332.63 302.411C332.63 302.411 317.39 281.799 299.356 299.978C299.356 299.978 303.494 310.131 314.437 312.162C325.381 314.186 332.63 302.411 332.63 302.411Z" fill="white"/>
</mask>
<g mask="url(#mask2_3834_59580)">
<path d="M324.417 309.031C323.592 314.846 318.214 318.886 312.399 318.061C306.584 317.237 302.544 311.858 303.369 306.044C304.193 300.229 309.571 296.188 315.386 297.013C321.201 297.838 325.242 303.216 324.417 309.031Z" fill="#2C0C04"/>
</g>
<path d="M299.176 299.443C300.971 296.622 303.563 294.363 306.571 292.721C309.593 291.113 313.183 290.281 316.711 290.655C318.464 290.835 320.197 291.258 321.805 291.923C323.392 292.623 324.93 293.427 326.275 294.481C329.006 296.505 331.237 299.041 332.901 301.876C332.984 302.021 332.935 302.209 332.79 302.292C332.679 302.354 332.54 302.34 332.45 302.271C329.893 300.275 327.384 298.362 324.709 296.9C322.054 295.417 319.247 294.391 316.364 294.1C313.488 293.781 310.549 294.245 307.729 295.292C304.908 296.338 302.177 297.925 299.627 299.831L299.606 299.845C299.474 299.942 299.287 299.914 299.183 299.783C299.107 299.679 299.107 299.547 299.169 299.443H299.176Z" fill="#2C0C04"/>
</g>
<path d="M296.883 297.996C296.314 308.295 299.683 310.513 301.658 312.19C301.658 312.19 303.702 313.86 302.42 316.487C301.339 318.698 298.615 320.59 296.529 320.112" stroke="#2C0C04" stroke-linecap="round" stroke-linejoin="round"/>
<path d="M291.574 317.816C291.574 317.816 290.472 315.869 288.102 317.442" stroke="#2C0C04" stroke-linecap="round" stroke-linejoin="round"/>
<path d="M285.232 318.164C280.381 313.569 286.743 310.18 286.743 310.18" stroke="#2C0C04" stroke-linecap="round" stroke-linejoin="round"/>
<path d="M268.96 366.875C247.246 363.79 234.681 336.602 234.681 336.602C241.119 341.716 249.942 349.118 270.831 355.876L268.953 366.875H268.96Z" fill="#2C0C04"/>
<path d="M218.637 299.565C218.637 299.565 215.303 296.55 216.939 293.556C218.581 290.562 221.222 291.927 221.818 288.531" stroke="#2C0C04" stroke-linecap="round" stroke-linejoin="round"/>
<path d="M220.182 277.183C220.182 277.183 214.43 273.468 211.491 284.883" stroke="#2C0C04" stroke-linecap="round" stroke-linejoin="round"/>
<path d="M257.496 276.499C259.208 274.385 261.087 272.999 263.249 271.842C265.384 270.698 267.719 270.033 270.082 269.686C272.439 269.472 274.844 269.52 277.117 270.04C278.274 270.241 279.349 270.684 280.465 271.01C281.525 271.461 282.565 271.946 283.59 272.479C285.281 273.36 285.961 275.598 285.108 277.483C284.304 279.264 282.419 280.089 280.79 279.445L280.527 279.341C278.808 278.648 277.138 277.899 275.412 277.442C273.7 276.901 271.961 276.659 270.193 276.555C268.426 276.444 266.652 276.693 264.864 277.109C263.117 277.518 261.239 278.315 259.735 279.174L259.465 279.327C258.633 279.805 257.621 279.459 257.212 278.558C256.9 277.871 257.032 277.054 257.483 276.499H257.496Z" fill="#2C0C04"/>
<path d="M252.451 291.029C252.451 291.029 272.827 275.47 285.087 297.953C285.087 297.953 278.289 306.554 267.213 305.459C256.138 304.357 252.451 291.029 252.451 291.029Z" fill="white"/>
<mask id="mask3_3834_59580" style="mask-type:luminance" maskUnits="userSpaceOnUse" x="252" y="285" width="34" height="21">
<path d="M252.451 291.029C252.451 291.029 272.827 275.47 285.087 297.953C285.087 297.953 278.289 306.554 267.213 305.459C256.138 304.357 252.451 291.029 252.451 291.029Z" fill="white"/>
</mask>
<g mask="url(#mask3_3834_59580)">
<path d="M258.731 299.7C257.906 305.515 261.947 310.893 267.761 311.718C273.576 312.542 278.954 308.502 279.779 302.687C280.604 296.872 276.563 291.494 270.749 290.669C264.934 289.845 259.556 293.885 258.731 299.7Z" fill="#2C0C04"/>
</g>
<path d="M284.866 297.733C282.946 295.19 280.77 292.91 278.351 291.115C275.932 289.32 273.236 288.058 270.388 287.566C267.539 287.046 264.559 287.247 261.6 287.933C258.619 288.592 255.681 289.728 252.666 290.934C252.514 290.997 252.333 290.92 252.271 290.768C252.222 290.65 252.257 290.518 252.347 290.435C254.738 288.176 257.587 286.36 260.768 285.175C262.348 284.544 264.046 284.191 265.772 283.962C267.504 283.775 269.286 283.844 271.018 284.163C274.511 284.787 277.734 286.582 280.181 288.966C282.613 291.385 284.471 294.268 285.413 297.484C285.462 297.643 285.372 297.809 285.212 297.858C285.087 297.893 284.963 297.851 284.886 297.754L284.873 297.733H284.866Z" fill="#2C0C04"/>
<path d="M304.118 326.865C304.118 326.865 290.451 326.172 277.255 322.582C277.255 322.582 274.691 339.52 287.942 341.669C299.731 343.582 304.118 326.865 304.118 326.865Z" fill="#2C0C04"/>
<path d="M277.255 322.582C277.255 322.582 290.499 325.805 304.118 326.865C304.118 326.865 299.052 335.667 277.255 322.582Z" fill="white"/>
<path d="M291.629 341.794C291.629 341.794 290.313 332.611 277.297 329.492C277.297 329.492 277.214 334.947 281.864 339.091C285.704 342.508 291.629 341.794 291.629 341.794Z" fill="#E06C6C"/>
<path d="M274.996 215.039C291.754 214.276 295.116 225.012 295.116 225.012C295.116 225.012 300.702 221.193 310.959 226.031C321.216 230.868 320.308 244.709 320.308 244.709C320.308 244.709 323.76 242.616 326.269 249.311C328.778 256.006 322.831 260.074 322.831 260.074C322.741 264.343 320.911 269.888 320.911 269.888C320.475 266.055 318.957 260.76 318.957 260.76C309.829 263.56 304.125 259.866 304.125 259.866C304.125 259.866 310.204 265.112 299.683 268.21C289.162 271.308 276.105 257.004 276.105 257.004C271.572 267.732 256.484 255.922 256.484 255.922C254.301 256.567 252.582 258.203 251.848 260.358C250.822 263.373 248.743 268.363 244.737 274.614C242.235 278.516 240.662 281.379 235.72 283.721C229.885 286.493 228.076 274.614 220.875 270.886C220.875 270.886 221.81 263.692 218.407 256.172C216.515 251.993 217.659 236.441 227.23 234.444C227.23 234.444 234.611 218.289 252.756 221.366C252.756 221.366 258.231 215.801 274.996 215.039Z" fill="#2C0C04"/>
<path d="M274.997 215.039C274.997 215.039 239.734 217.846 234.681 276.603C234.681 276.603 227.778 271.211 221.139 271.114C221.139 271.114 222.941 214.103 274.997 215.039Z" fill="#BACAD6"/>
<path d="M244.495 296.482C241.653 307.799 235.769 319.186 218.117 314.751C202.758 310.89 200.658 297.5 203.5 286.183C206.341 274.865 214.436 264.4 229.795 268.26C244.779 272.023 247.343 285.157 244.501 296.482H244.495Z" fill="#BACAD6"/>
<path d="M232.907 292.689C231.001 300.292 227.224 307.978 216.475 305.282C207.125 302.932 206.037 294.026 207.943 286.424C209.849 278.821 214.964 271.717 224.313 274.066C233.434 276.36 234.813 285.093 232.9 292.689H232.907Z" stroke="#2C0C04" stroke-width="0.75" stroke-linecap="round" stroke-linejoin="round"/>
<path d="M212.829 270.851C212.829 270.851 220.273 263.982 233.704 269.561" stroke="#2C0C04" stroke-width="0.75" stroke-linecap="round" stroke-linejoin="round"/>
<path d="M423.72 751.434H245.049V786.6H423.72V751.434Z" fill="#E06C6C"/>
<path d="M408.209 786.129H229.538V819.576H408.209V786.129Z" fill="#5B74CE"/>
<path d="M409.443 725.543H230.771V751.796H409.443V725.543Z" fill="#E6A861"/>
<path d="M238.776 751.434H357.858" stroke="#2C0C04" stroke-width="0.75" stroke-linecap="round" stroke-linejoin="round"/>
<path d="M396.712 769.021C396.712 774.863 366.917 779.604 330.164 779.604C293.411 779.604 263.616 774.863 263.616 769.021C263.616 763.178 293.411 758.438 330.164 758.438C366.917 758.438 396.712 763.178 396.712 769.021Z" stroke="#2C0C04" stroke-width="0.75" stroke-linecap="round" stroke-linejoin="round"/>
<path d="M263.609 793.895V811.644" stroke="#2C0C04" stroke-width="0.75" stroke-linecap="round" stroke-linejoin="round"/>
<path d="M374.257 793.895V811.644" stroke="#2C0C04" stroke-width="0.75" stroke-linecap="round" stroke-linejoin="round"/>
<path d="M318.874 793.895V811.644" stroke="#2C0C04" stroke-width="0.75" stroke-linecap="round" stroke-linejoin="round"/>
<path d="M256.498 725.543H409.45V746.467" stroke="#2C0C04" stroke-width="0.75" stroke-linecap="round" stroke-linejoin="round"/>
<path d="M247.108 720.163V652.361C247.108 651.162 248.079 650.191 249.278 650.191H318.05C319.249 650.191 320.22 651.162 320.22 652.361V720.163C320.22 723.136 317.815 725.541 314.841 725.541H252.487C249.513 725.541 247.108 723.136 247.108 720.163Z" fill="#5B74CE"/>
<path d="M251.218 650.191H296.392" stroke="#2C0C04" stroke-width="0.75" stroke-linecap="round" stroke-linejoin="round"/>
<path d="M247.107 661.607C247.107 661.607 225.519 659.763 225.519 687.867C225.519 715.971 247.107 712.069 247.107 712.069V703.204C247.107 703.204 233.253 707.938 233.253 687.867C233.253 667.796 247.107 670.533 247.107 670.533V661.607Z" fill="#5B74CE"/>
<path d="M247.107 656.812V715.737" stroke="#2C0C04" stroke-width="0.75" stroke-linecap="round" stroke-linejoin="round"/>
<path d="M265.1 646.118C265.1 646.118 268.198 633.192 264.24 628.639C260.283 624.085 255.459 613.759 262.688 604.811C269.917 595.864 265.439 589.668 265.439 589.668C265.439 589.668 271.982 594.831 265.613 610.495C265.613 610.495 263.547 618.583 270.09 623.919C276.632 629.256 265.1 646.125 265.1 646.125V646.118Z" fill="white"/>
<path d="M289.544 624.528C295.802 627.584 285.427 642.853 285.427 642.853C285.427 642.853 287.984 632.179 284.72 628.423C281.456 624.667 277.478 616.142 283.445 608.754C283.445 608.754 279.494 619.614 289.551 624.521L289.544 624.528Z" fill="white"/>
<path d="M320.635 661.441V715.736" stroke="#2C0C04" stroke-width="0.75" stroke-linecap="round" stroke-linejoin="round"/>
</g>
<defs>
<clipPath id="clip0_3834_59580">
<rect width="761" height="820" fill="white"/>
</clipPath>
</defs>
</svg>
