<svg width="761" height="820" viewBox="0 0 761 820" fill="none" xmlns="http://www.w3.org/2000/svg">
<g clip-path="url(#clip0_3839_59742)">
<rect width="761" height="820" fill="#C0C0C0"/>
<rect width="761" height="820" fill="#595151"/>
<path d="M87.6 98.6V104.35H98.85V111.8H87.6V118.15H100.35V126H77.8V90.75H100.35V98.6H87.6ZM103.593 111.95C103.593 109.05 104.109 106.517 105.143 104.35C106.209 102.183 107.659 100.517 109.493 99.35C111.326 98.1833 113.359 97.6 115.593 97.6C117.393 97.6 118.993 97.9833 120.393 98.75C121.826 99.4833 122.943 100.5 123.743 101.8V89H133.593V126H123.743V122.1C122.976 123.4 121.893 124.433 120.493 125.2C119.093 125.967 117.443 126.35 115.543 126.35C113.309 126.35 111.276 125.767 109.443 124.6C107.643 123.433 106.209 121.767 105.143 119.6C104.109 117.4 103.593 114.85 103.593 111.95ZM123.793 111.95C123.793 110.15 123.293 108.733 122.293 107.7C121.326 106.667 120.126 106.15 118.693 106.15C117.226 106.15 116.009 106.667 115.043 107.7C114.076 108.7 113.593 110.117 113.593 111.95C113.593 113.75 114.076 115.183 115.043 116.25C116.009 117.283 117.226 117.8 118.693 117.8C120.126 117.8 121.326 117.283 122.293 116.25C123.293 115.217 123.793 113.783 123.793 111.95ZM167.877 97.95V126H158.027V122C157.194 123.267 156.044 124.3 154.577 125.1C153.11 125.867 151.427 126.25 149.527 126.25C146.26 126.25 143.677 125.183 141.777 123.05C139.91 120.883 138.977 117.95 138.977 114.25V97.95H148.727V113C148.727 114.6 149.144 115.867 149.977 116.8C150.844 117.7 151.977 118.15 153.377 118.15C154.81 118.15 155.944 117.7 156.777 116.8C157.61 115.867 158.027 114.6 158.027 113V97.95H167.877ZM171.854 111.95C171.854 109.05 172.454 106.517 173.654 104.35C174.854 102.183 176.521 100.517 178.654 99.35C180.821 98.1833 183.288 97.6 186.054 97.6C189.621 97.6 192.621 98.5833 195.054 100.55C197.488 102.483 199.054 105.2 199.754 108.7H189.354C188.754 106.867 187.588 105.95 185.854 105.95C184.621 105.95 183.638 106.467 182.904 107.5C182.204 108.5 181.854 109.983 181.854 111.95C181.854 113.917 182.204 115.417 182.904 116.45C183.638 117.483 184.621 118 185.854 118C187.621 118 188.788 117.083 189.354 115.25H199.754C199.054 118.717 197.488 121.433 195.054 123.4C192.621 125.367 189.621 126.35 186.054 126.35C183.288 126.35 180.821 125.767 178.654 124.6C176.521 123.433 174.854 121.767 173.654 119.6C172.454 117.433 171.854 114.883 171.854 111.95ZM202.225 111.95C202.225 109.05 202.742 106.517 203.775 104.35C204.842 102.183 206.275 100.517 208.075 99.35C209.909 98.1833 211.942 97.6 214.175 97.6C216.109 97.6 217.775 97.9833 219.175 98.75C220.575 99.5167 221.659 100.55 222.425 101.85V97.95H232.225V126H222.425V122.1C221.659 123.4 220.559 124.433 219.125 125.2C217.725 125.967 216.075 126.35 214.175 126.35C211.942 126.35 209.909 125.767 208.075 124.6C206.275 123.433 204.842 121.767 203.775 119.6C202.742 117.4 202.225 114.85 202.225 111.95ZM222.425 111.95C222.425 110.15 221.925 108.733 220.925 107.7C219.959 106.667 218.759 106.15 217.325 106.15C215.859 106.15 214.642 106.667 213.675 107.7C212.709 108.7 212.225 110.117 212.225 111.95C212.225 113.75 212.709 115.183 213.675 116.25C214.642 117.283 215.859 117.8 217.325 117.8C218.759 117.8 219.959 117.283 220.925 116.25C221.925 115.217 222.425 113.783 222.425 111.95ZM254.36 117.65V126H250.11C242.943 126 239.36 122.45 239.36 115.35V106.1H235.91V97.95H239.36V91.15H249.21V97.95H254.31V106.1H249.21V115.5C249.21 116.267 249.376 116.817 249.71 117.15C250.076 117.483 250.676 117.65 251.51 117.65H254.36ZM263.805 95.35C262.071 95.35 260.671 94.8833 259.605 93.95C258.571 92.9833 258.055 91.7833 258.055 90.35C258.055 88.8833 258.571 87.6667 259.605 86.7C260.671 85.7333 262.071 85.25 263.805 85.25C265.505 85.25 266.871 85.7333 267.905 86.7C268.971 87.6667 269.505 88.8833 269.505 90.35C269.505 91.7833 268.971 92.9833 267.905 93.95C266.871 94.8833 265.505 95.35 263.805 95.35ZM268.655 97.95V126H258.855V97.95H268.655ZM287.286 126.35C284.486 126.35 281.969 125.767 279.736 124.6C277.536 123.433 275.802 121.767 274.536 119.6C273.269 117.433 272.636 114.883 272.636 111.95C272.636 109.05 273.269 106.517 274.536 104.35C275.836 102.183 277.586 100.517 279.786 99.35C282.019 98.1833 284.536 97.6 287.336 97.6C290.136 97.6 292.636 98.1833 294.836 99.35C297.069 100.517 298.819 102.183 300.086 104.35C301.386 106.517 302.036 109.05 302.036 111.95C302.036 114.85 301.386 117.4 300.086 119.6C298.819 121.767 297.069 123.433 294.836 124.6C292.602 125.767 290.086 126.35 287.286 126.35ZM287.286 117.85C288.652 117.85 289.786 117.35 290.686 116.35C291.619 115.317 292.086 113.85 292.086 111.95C292.086 110.05 291.619 108.6 290.686 107.6C289.786 106.6 288.669 106.1 287.336 106.1C286.002 106.1 284.886 106.6 283.986 107.6C283.086 108.6 282.636 110.05 282.636 111.95C282.636 113.883 283.069 115.35 283.936 116.35C284.802 117.35 285.919 117.85 287.286 117.85ZM324.373 97.7C327.606 97.7 330.173 98.7833 332.073 100.95C333.973 103.083 334.923 105.983 334.923 109.65V126H325.123V110.95C325.123 109.35 324.706 108.1 323.873 107.2C323.039 106.267 321.923 105.8 320.523 105.8C319.056 105.8 317.906 106.267 317.073 107.2C316.239 108.1 315.823 109.35 315.823 110.95V126H306.023V97.95H315.823V101.95C316.689 100.683 317.856 99.6667 319.323 98.9C320.789 98.1 322.473 97.7 324.373 97.7ZM365.02 106.1H360.62V126H350.77V106.1H347.72V97.95H350.77V97.7C350.77 94.1 351.82 91.35 353.92 89.45C356.054 87.5167 359.104 86.55 363.07 86.55C363.87 86.55 364.487 86.5667 364.92 86.6V94.95C364.654 94.9167 364.287 94.9 363.82 94.9C362.754 94.9 361.97 95.15 361.47 95.65C360.97 96.1167 360.687 96.8833 360.62 97.95H365.02V106.1ZM381.573 126.35C378.773 126.35 376.256 125.767 374.023 124.6C371.823 123.433 370.089 121.767 368.823 119.6C367.556 117.433 366.923 114.883 366.923 111.95C366.923 109.05 367.556 106.517 368.823 104.35C370.123 102.183 371.873 100.517 374.073 99.35C376.306 98.1833 378.823 97.6 381.623 97.6C384.423 97.6 386.923 98.1833 389.123 99.35C391.356 100.517 393.106 102.183 394.373 104.35C395.673 106.517 396.323 109.05 396.323 111.95C396.323 114.85 395.673 117.4 394.373 119.6C393.106 121.767 391.356 123.433 389.123 124.6C386.889 125.767 384.373 126.35 381.573 126.35ZM381.573 117.85C382.939 117.85 384.073 117.35 384.973 116.35C385.906 115.317 386.373 113.85 386.373 111.95C386.373 110.05 385.906 108.6 384.973 107.6C384.073 106.6 382.956 106.1 381.623 106.1C380.289 106.1 379.173 106.6 378.273 107.6C377.373 108.6 376.923 110.05 376.923 111.95C376.923 113.883 377.356 115.35 378.223 116.35C379.089 117.35 380.206 117.85 381.573 117.85ZM410.11 102.9C411.21 101.3 412.543 100.033 414.11 99.1C415.676 98.1667 417.36 97.7 419.16 97.7V108.15H416.41C414.276 108.15 412.693 108.567 411.66 109.4C410.626 110.233 410.11 111.683 410.11 113.75V126H400.31V97.95H410.11V102.9ZM430.643 111.95C430.643 109.05 431.16 106.517 432.193 104.35C433.26 102.183 434.693 100.517 436.493 99.35C438.327 98.1833 440.36 97.6 442.593 97.6C444.527 97.6 446.193 97.9833 447.593 98.75C448.993 99.5167 450.077 100.55 450.843 101.85V97.95H460.643V126H450.843V122.1C450.077 123.4 448.977 124.433 447.543 125.2C446.143 125.967 444.493 126.35 442.593 126.35C440.36 126.35 438.327 125.767 436.493 124.6C434.693 123.433 433.26 121.767 432.193 119.6C431.16 117.4 430.643 114.85 430.643 111.95ZM450.843 111.95C450.843 110.15 450.343 108.733 449.343 107.7C448.377 106.667 447.177 106.15 445.743 106.15C444.277 106.15 443.06 106.667 442.093 107.7C441.127 108.7 440.643 110.117 440.643 111.95C440.643 113.75 441.127 115.183 442.093 116.25C443.06 117.283 444.277 117.8 445.743 117.8C447.177 117.8 448.377 117.283 449.343 116.25C450.343 115.217 450.843 113.783 450.843 111.95ZM476.028 89V126H466.228V89H476.028ZM491.409 89V126H481.609V89H491.409ZM507.539 117.6L502.189 132.2H495.989L498.589 117.6H507.539ZM76.2 186.95C76.2 184.05 76.7167 181.517 77.75 179.35C78.8167 177.183 80.25 175.517 82.05 174.35C83.8833 173.183 85.9167 172.6 88.15 172.6C90.0833 172.6 91.75 172.983 93.15 173.75C94.55 174.517 95.6333 175.55 96.4 176.85V172.95H106.2V201H96.4V197.1C95.6333 198.4 94.5333 199.433 93.1 200.2C91.7 200.967 90.05 201.35 88.15 201.35C85.9167 201.35 83.8833 200.767 82.05 199.6C80.25 198.433 78.8167 196.767 77.75 194.6C76.7167 192.4 76.2 189.85 76.2 186.95ZM96.4 186.95C96.4 185.15 95.9 183.733 94.9 182.7C93.9333 181.667 92.7333 181.15 91.3 181.15C89.8333 181.15 88.6167 181.667 87.65 182.7C86.6833 183.7 86.2 185.117 86.2 186.95C86.2 188.75 86.6833 190.183 87.65 191.25C88.6167 192.283 89.8333 192.8 91.3 192.8C92.7333 192.8 93.9333 192.283 94.9 191.25C95.9 190.217 96.4 188.783 96.4 186.95ZM130.134 172.7C133.368 172.7 135.934 173.783 137.834 175.95C139.734 178.083 140.684 180.983 140.684 184.65V201H130.884V185.95C130.884 184.35 130.468 183.1 129.634 182.2C128.801 181.267 127.684 180.8 126.284 180.8C124.818 180.8 123.668 181.267 122.834 182.2C122.001 183.1 121.584 184.35 121.584 185.95V201H111.784V172.95H121.584V176.95C122.451 175.683 123.618 174.667 125.084 173.9C126.551 173.1 128.234 172.7 130.134 172.7ZM176.262 172.95L158.462 214.35H147.812L154.512 199.8L143.012 172.95H153.912L159.812 188.85L165.512 172.95H176.262ZM220.275 172.95L213.125 201H202.125L198.225 184L194.175 201H183.225L176.125 172.95H185.875L189.025 191.55L193.175 172.95H203.675L207.975 191.6L211.075 172.95H220.275ZM241.514 172.7C244.714 172.7 247.247 173.783 249.114 175.95C251.014 178.083 251.964 180.983 251.964 184.65V201H242.164V185.95C242.164 184.35 241.747 183.1 240.914 182.2C240.08 181.267 238.964 180.8 237.564 180.8C236.097 180.8 234.947 181.267 234.114 182.2C233.28 183.1 232.864 184.35 232.864 185.95V201H223.064V164H232.864V176.95C233.73 175.683 234.897 174.667 236.364 173.9C237.864 173.1 239.58 172.7 241.514 172.7ZM284.141 186.65C284.141 187.417 284.091 188.183 283.991 188.95H265.441C265.541 190.483 265.958 191.633 266.691 192.4C267.458 193.133 268.424 193.5 269.591 193.5C271.224 193.5 272.391 192.767 273.091 191.3H283.541C283.108 193.233 282.258 194.967 280.991 196.5C279.758 198 278.191 199.183 276.291 200.05C274.391 200.917 272.291 201.35 269.991 201.35C267.224 201.35 264.758 200.767 262.591 199.6C260.458 198.433 258.774 196.767 257.541 194.6C256.341 192.433 255.741 189.883 255.741 186.95C255.741 184.017 256.341 181.483 257.541 179.35C258.741 177.183 260.408 175.517 262.541 174.35C264.708 173.183 267.191 172.6 269.991 172.6C272.758 172.6 275.208 173.167 277.341 174.3C279.474 175.433 281.141 177.067 282.341 179.2C283.541 181.3 284.141 183.783 284.141 186.65ZM274.141 184.2C274.141 183 273.741 182.067 272.941 181.4C272.141 180.7 271.141 180.35 269.941 180.35C268.741 180.35 267.758 180.683 266.991 181.35C266.224 181.983 265.724 182.933 265.491 184.2H274.141ZM297.952 177.9C299.052 176.3 300.385 175.033 301.952 174.1C303.518 173.167 305.202 172.7 307.002 172.7V183.15H304.252C302.118 183.15 300.535 183.567 299.502 184.4C298.468 185.233 297.952 186.683 297.952 188.75V201H288.152V172.95H297.952V177.9ZM337.315 186.65C337.315 187.417 337.265 188.183 337.165 188.95H318.615C318.715 190.483 319.132 191.633 319.865 192.4C320.632 193.133 321.598 193.5 322.765 193.5C324.398 193.5 325.565 192.767 326.265 191.3H336.715C336.282 193.233 335.432 194.967 334.165 196.5C332.932 198 331.365 199.183 329.465 200.05C327.565 200.917 325.465 201.35 323.165 201.35C320.398 201.35 317.932 200.767 315.765 199.6C313.632 198.433 311.948 196.767 310.715 194.6C309.515 192.433 308.915 189.883 308.915 186.95C308.915 184.017 309.515 181.483 310.715 179.35C311.915 177.183 313.582 175.517 315.715 174.35C317.882 173.183 320.365 172.6 323.165 172.6C325.932 172.6 328.382 173.167 330.515 174.3C332.648 175.433 334.315 177.067 335.515 179.2C336.715 181.3 337.315 183.783 337.315 186.65ZM327.315 184.2C327.315 183 326.915 182.067 326.115 181.4C325.315 180.7 324.315 180.35 323.115 180.35C321.915 180.35 320.932 180.683 320.165 181.35C319.398 181.983 318.898 182.933 318.665 184.2H327.315ZM351.875 192.6L346.525 207.2H340.325L342.925 192.6H351.875ZM104.6 261.65C104.6 262.417 104.55 263.183 104.45 263.95H85.9C86 265.483 86.4167 266.633 87.15 267.4C87.9167 268.133 88.8833 268.5 90.05 268.5C91.6833 268.5 92.85 267.767 93.55 266.3H104C103.567 268.233 102.717 269.967 101.45 271.5C100.217 273 98.65 274.183 96.75 275.05C94.85 275.917 92.75 276.35 90.45 276.35C87.6833 276.35 85.2167 275.767 83.05 274.6C80.9167 273.433 79.2333 271.767 78 269.6C76.8 267.433 76.2 264.883 76.2 261.95C76.2 259.017 76.8 256.483 78 254.35C79.2 252.183 80.8667 250.517 83 249.35C85.1667 248.183 87.65 247.6 90.45 247.6C93.2167 247.6 95.6667 248.167 97.8 249.3C99.9333 250.433 101.6 252.067 102.8 254.2C104 256.3 104.6 258.783 104.6 261.65ZM94.6 259.2C94.6 258 94.2 257.067 93.4 256.4C92.6 255.7 91.6 255.35 90.4 255.35C89.2 255.35 88.2167 255.683 87.45 256.35C86.6833 256.983 86.1833 257.933 85.95 259.2H94.6ZM122.061 266.75L127.311 247.95H137.761L128.111 276H115.911L106.261 247.95H116.711L122.061 266.75ZM167.881 261.65C167.881 262.417 167.831 263.183 167.731 263.95H149.181C149.281 265.483 149.698 266.633 150.431 267.4C151.198 268.133 152.165 268.5 153.331 268.5C154.965 268.5 156.131 267.767 156.831 266.3H167.281C166.848 268.233 165.998 269.967 164.731 271.5C163.498 273 161.931 274.183 160.031 275.05C158.131 275.917 156.031 276.35 153.731 276.35C150.965 276.35 148.498 275.767 146.331 274.6C144.198 273.433 142.515 271.767 141.281 269.6C140.081 267.433 139.481 264.883 139.481 261.95C139.481 259.017 140.081 256.483 141.281 254.35C142.481 252.183 144.148 250.517 146.281 249.35C148.448 248.183 150.931 247.6 153.731 247.6C156.498 247.6 158.948 248.167 161.081 249.3C163.215 250.433 164.881 252.067 166.081 254.2C167.281 256.3 167.881 258.783 167.881 261.65ZM157.881 259.2C157.881 258 157.481 257.067 156.681 256.4C155.881 255.7 154.881 255.35 153.681 255.35C152.481 255.35 151.498 255.683 150.731 256.35C149.965 256.983 149.465 257.933 149.231 259.2H157.881ZM181.692 252.9C182.792 251.3 184.125 250.033 185.692 249.1C187.258 248.167 188.942 247.7 190.742 247.7V258.15H187.992C185.858 258.15 184.275 258.567 183.242 259.4C182.208 260.233 181.692 261.683 181.692 263.75V276H171.892V247.95H181.692V252.9ZM224.455 247.95L206.655 289.35H196.005L202.705 274.8L191.205 247.95H202.105L208.005 263.85L213.705 247.95H224.455ZM268.469 247.95L261.319 276H250.319L246.419 259L242.369 276H231.419L224.319 247.95H234.069L237.219 266.55L241.369 247.95H251.869L256.169 266.6L259.269 247.95H268.469ZM289.707 247.7C292.907 247.7 295.44 248.783 297.307 250.95C299.207 253.083 300.157 255.983 300.157 259.65V276H290.357V260.95C290.357 259.35 289.94 258.1 289.107 257.2C288.274 256.267 287.157 255.8 285.757 255.8C284.29 255.8 283.14 256.267 282.307 257.2C281.474 258.1 281.057 259.35 281.057 260.95V276H271.257V239H281.057V251.95C281.924 250.683 283.09 249.667 284.557 248.9C286.057 248.1 287.774 247.7 289.707 247.7ZM332.334 261.65C332.334 262.417 332.284 263.183 332.184 263.95H313.634C313.734 265.483 314.151 266.633 314.884 267.4C315.651 268.133 316.618 268.5 317.784 268.5C319.418 268.5 320.584 267.767 321.284 266.3H331.734C331.301 268.233 330.451 269.967 329.184 271.5C327.951 273 326.384 274.183 324.484 275.05C322.584 275.917 320.484 276.35 318.184 276.35C315.418 276.35 312.951 275.767 310.784 274.6C308.651 273.433 306.968 271.767 305.734 269.6C304.534 267.433 303.934 264.883 303.934 261.95C303.934 259.017 304.534 256.483 305.734 254.35C306.934 252.183 308.601 250.517 310.734 249.35C312.901 248.183 315.384 247.6 318.184 247.6C320.951 247.6 323.401 248.167 325.534 249.3C327.668 250.433 329.334 252.067 330.534 254.2C331.734 256.3 332.334 258.783 332.334 261.65ZM322.334 259.2C322.334 258 321.934 257.067 321.134 256.4C320.334 255.7 319.334 255.35 318.134 255.35C316.934 255.35 315.951 255.683 315.184 256.35C314.418 256.983 313.918 257.933 313.684 259.2H322.334ZM346.145 252.9C347.245 251.3 348.578 250.033 350.145 249.1C351.712 248.167 353.395 247.7 355.195 247.7V258.15H352.445C350.312 258.15 348.728 258.567 347.695 259.4C346.662 260.233 346.145 261.683 346.145 263.75V276H336.345V247.95H346.145V252.9ZM385.508 261.65C385.508 262.417 385.458 263.183 385.358 263.95H366.808C366.908 265.483 367.325 266.633 368.058 267.4C368.825 268.133 369.792 268.5 370.958 268.5C372.592 268.5 373.758 267.767 374.458 266.3H384.908C384.475 268.233 383.625 269.967 382.358 271.5C381.125 273 379.558 274.183 377.658 275.05C375.758 275.917 373.658 276.35 371.358 276.35C368.592 276.35 366.125 275.767 363.958 274.6C361.825 273.433 360.142 271.767 358.908 269.6C357.708 267.433 357.108 264.883 357.108 261.95C357.108 259.017 357.708 256.483 358.908 254.35C360.108 252.183 361.775 250.517 363.908 249.35C366.075 248.183 368.558 247.6 371.358 247.6C374.125 247.6 376.575 248.167 378.708 249.3C380.842 250.433 382.508 252.067 383.708 254.2C384.908 256.3 385.508 258.783 385.508 261.65ZM375.508 259.2C375.508 258 375.108 257.067 374.308 256.4C373.508 255.7 372.508 255.35 371.308 255.35C370.108 255.35 369.125 255.683 368.358 256.35C367.592 256.983 367.092 257.933 366.858 259.2H375.508Z" fill="#C0C0C0"/>
<rect x="-235" y="323" width="879" height="526" fill="#418FE8" fill-opacity="0.1"/>
<path d="M330.348 527.084C330.348 527.084 318.247 554.169 300.879 589.778C300.879 589.778 220.976 609.461 179.912 631.203C179.912 631.203 193.995 652.563 207.926 663.548C207.926 663.548 310.97 669.071 355.063 648.543C355.063 648.543 391.248 586.819 406.543 546.781C421.839 506.743 353.011 497.712 330.334 527.084H330.348Z" fill="#C46341"/>
<path d="M418.332 381.843C418.332 381.843 359.124 396.744 308.981 535.023C308.981 535.023 358.756 549.481 391.878 557.215C391.878 557.215 419.399 420.835 418.332 381.836V381.843Z" fill="#B2AB77"/>
<path d="M368.861 622.919C368.861 622.919 372.41 577.073 371.848 560.793C370.559 523.285 366.401 487.647 382.071 423.768C386.597 405.326 402.315 385.539 418.332 381.845C527.011 356.777 576.704 374.512 616.319 429.694C616.319 429.694 646.738 474.479 660.945 554.424C660.945 554.424 600.129 566.116 529.063 571.446L528.979 622.912C528.979 622.912 442.575 649.263 368.861 622.912V622.919Z" fill="#B2AB77"/>
<path d="M389.016 434.848C376.346 477.194 370.074 514.148 371.003 540.436C371.904 566.093 371.169 587.224 371.169 587.224L369.672 610.407" stroke="#2C0C04" stroke-linecap="round" stroke-linejoin="round"/>
<path d="M368.862 608.906C368.862 608.906 346.053 667.304 346.975 687.61C346.975 687.61 567.008 797.766 588.153 756.161C626.383 680.936 577.21 586.098 577.21 586.098L368.862 608.906Z" fill="#BACAD6"/>
<path d="M390.666 664.581C390.666 664.581 180.356 597.825 117.606 638.494C35.395 691.777 33.0317 786.442 300.214 813.416C564.305 840.078 463.097 667.277 390.666 664.588V664.581Z" fill="#BACAD6"/>
<path d="M252.732 666.992C252.732 666.992 342.034 704.334 370.962 707.64" stroke="#2C0C04" stroke-linecap="round" stroke-linejoin="round"/>
<path d="M89.745 661.434C89.745 661.434 85.9539 732.417 252.739 807.503" stroke="#2C0C04" stroke-linecap="round" stroke-linejoin="round"/>
<path d="M366.075 657.34C366.075 657.34 287.191 636.216 207.932 625.355" stroke="#2C0C04" stroke-linecap="round" stroke-linejoin="round"/>
<path d="M567.431 790.049C567.431 790.049 580.523 819.213 539.737 819.213C498.95 819.213 423.864 792.537 423.864 792.537C423.864 792.537 541.22 737.321 567.431 790.049Z" fill="#B2AB77"/>
<path d="M194.112 635.816H364.12C367.309 635.816 369.894 638.401 369.894 641.59V651.57C369.894 654.758 367.309 657.343 364.12 657.343H194.112C190.924 657.343 188.339 654.758 188.339 651.57V641.59C188.339 638.401 190.924 635.816 194.112 635.816Z" fill="#E6A861"/>
<path d="M107.175 657.343H281.195C286.851 657.343 290.524 651.383 287.981 646.33L228.412 527.983C227.123 525.419 224.496 523.797 221.627 523.797H47.6059C41.9505 523.797 38.2773 529.757 40.8208 534.81L100.389 653.157C101.679 655.721 104.305 657.336 107.175 657.336V657.343Z" fill="#E6A861"/>
<path d="M362.298 635.816H107.563" stroke="#2C0C04" stroke-linecap="round" stroke-linejoin="round"/>
<path d="M150.291 595.014C146.549 585.937 148.351 576.585 154.317 574.125C160.283 571.665 168.154 577.028 171.897 586.105C175.64 595.181 173.837 604.534 167.871 606.994C161.905 609.454 154.034 604.09 150.291 595.014Z" stroke="#2C0C04" stroke-linecap="round" stroke-linejoin="round"/>
<path d="M221.842 533.996L267.604 625.355" stroke="#2C0C04" stroke-linecap="round" stroke-linejoin="round"/>
<path d="M622.37 560.832C622.37 560.832 622.592 605.729 609.555 645.892C597.136 684.162 557.021 653.903 397.742 649.073C397.742 649.073 384.262 633.666 381.476 597.391C381.476 597.391 455.987 590.516 520.046 578.276C520.046 578.276 519.617 593.801 520.109 571.602C520.109 571.602 560.951 570.514 622.377 560.832H622.37Z" fill="#C46341"/>
<path d="M502.533 441.195C502.533 441.195 495.068 532.437 495.068 572.253C495.068 572.253 531.634 572.801 577.21 566.633" stroke="#2C0C04" stroke-linecap="round" stroke-linejoin="round"/>
<path d="M418.887 600.68L419.22 648.439C419.22 648.439 381.087 654.295 367.898 630.322C367.898 630.322 346.608 645.59 337.639 637.897C337.639 637.897 327.639 643.026 318.795 637.641C318.795 637.641 310.464 643.282 301.746 636.615C301.746 636.615 287.649 642.257 284.572 631.487C281.494 620.716 324.305 603.542 340.204 595.08C356.096 586.618 372.764 593.798 381.476 597.388C390.194 600.978 404.624 600.909 418.887 600.673V600.68Z" fill="#C46341"/>
<path d="M348.471 639.582C358.653 637.974 371.959 627.793 371.959 627.793C388.177 641.017 400.167 635.729 400.167 635.729" stroke="#2C0C04" stroke-linecap="round" stroke-linejoin="round"/>
<path d="M337.64 637.899C337.64 637.899 329.122 631.496 369.14 613.164" stroke="#2C0C04" stroke-linecap="round" stroke-linejoin="round"/>
<path d="M318.795 637.638C318.795 637.638 307.443 627.79 355.035 607.164" stroke="#2C0C04" stroke-linecap="round" stroke-linejoin="round"/>
<path d="M301.745 636.616C301.745 636.616 291.045 623.912 343.398 603.113" stroke="#2C0C04" stroke-linecap="round" stroke-linejoin="round"/>
<path d="M397.104 595.548C397.104 595.548 385.309 598.653 378.912 596.068C358.473 587.8 346.795 591.771 340.204 595.084C340.204 595.084 299.722 614.316 291.184 621.268C282.645 628.219 280.906 634.526 291.184 637.894" stroke="#2C0C04" stroke-linecap="round" stroke-linejoin="round"/>
<path d="M293.534 819.214H159.295C120.733 819.214 102.318 809.761 94.8748 801.16C84.6175 789.316 75.3097 729.595 117.545 734.966C204.198 745.992 223.258 767.907 274.004 745.126L293.541 819.208L293.534 819.214Z" fill="#B2AB77"/>
<path d="M469.932 640.383C493.336 634.437 518.03 635.65 540.478 644.763C565.041 654.73 588.764 662.929 597.441 703.466C602.05 724.985 595.147 755.979 574.362 771.58C525.848 807.986 412.796 826.408 256.871 818.216C256.871 818.216 237.624 777.894 232.523 756.166C232.523 756.166 335.103 674.634 469.925 640.39L469.932 640.383Z" fill="#BACAD6"/>
<path d="M232.531 756.16C232.531 756.16 332.595 680.201 434.094 650.773" stroke="#2C0C04" stroke-linecap="round" stroke-linejoin="round"/>
<path d="M245.435 792.534C245.435 792.534 542.897 748.213 582.9 678.324" stroke="#2C0C04" stroke-linecap="round" stroke-linejoin="round"/>
<path d="M580.718 673.809C600.665 711.178 577.988 761.003 577.988 761.003C577.988 761.003 571.896 778.53 542.309 789.314" stroke="#2C0C04" stroke-linecap="round" stroke-linejoin="round"/>
<path d="M372.465 303.35C374.683 314.813 379.929 326.498 397.803 323.039C413.349 320.032 416.183 306.78 413.965 295.317C411.748 283.854 404.242 272.973 388.696 275.974C373.525 278.905 370.247 291.886 372.465 303.343V303.35Z" fill="#BACAD6"/>
<path d="M382.778 323.827C384.788 344.827 401.359 364.039 430.107 355.874L435.347 386.584C435.347 386.584 446.914 394.914 469.12 391.276C492.92 387.381 505.027 375.599 505.027 375.599L483.847 307.187C485.795 307.443 487.881 307.041 487.881 307.041C487.881 307.041 502.179 304.588 495.318 283.775C488.858 264.189 478.788 271.57 478.788 271.57L474.81 256.115C474.81 256.115 466.659 225.565 418.686 232.378C381.531 237.652 380.027 269.886 380.027 269.886C380.027 269.886 381.08 306.147 382.771 323.827H382.778Z" fill="#C46341"/>
<mask id="mask0_3839_59742" style="mask-type:luminance" maskUnits="userSpaceOnUse" x="380" y="269" width="20" height="17">
<path d="M380.034 269.888L380.574 285.385C380.574 285.385 399.343 286.958 399.932 279.466C399.932 279.466 397.943 267.524 380.034 269.888Z" fill="white"/>
</mask>
<g mask="url(#mask0_3839_59742)">
<path d="M366.9 287.367C367.967 284.858 369.409 283 371.183 281.282C372.937 279.591 375.016 278.295 377.213 277.297C379.444 276.43 381.787 275.8 384.136 275.668C385.322 275.536 386.479 275.668 387.657 275.668C388.815 275.807 389.958 275.98 391.102 276.202C392.987 276.569 394.276 278.53 393.971 280.582C393.687 282.515 392.093 283.839 390.325 283.673L390.041 283.645C388.184 283.465 386.354 283.208 384.552 283.257C382.743 283.215 380.983 283.472 379.243 283.867C377.497 284.255 375.84 284.99 374.233 285.891C372.652 286.771 371.051 288.067 369.839 289.307L369.624 289.529C368.944 290.222 367.877 290.174 367.226 289.418C366.734 288.843 366.63 288.025 366.907 287.367H366.9Z" fill="#2C0C04"/>
</g>
<mask id="mask1_3839_59742" style="mask-type:luminance" maskUnits="userSpaceOnUse" x="380" y="286" width="26" height="30">
<path d="M380.637 286.954C380.637 286.954 380.914 298.432 382.127 315.911C382.127 315.911 397.742 316.472 403.293 309.68C405.857 306.54 406.079 301.128 405.656 293.206C405.656 293.206 399.204 283.032 380.637 286.954Z" fill="white"/>
</mask>
<g mask="url(#mask1_3839_59742)">
<path d="M368.315 302.411C368.315 302.411 383.555 281.799 401.589 299.978C401.589 299.978 397.451 310.131 386.508 312.162C375.564 314.186 368.315 302.411 368.315 302.411Z" fill="white"/>
<mask id="mask2_3839_59742" style="mask-type:luminance" maskUnits="userSpaceOnUse" x="368" y="292" width="34" height="21">
<path d="M368.315 302.411C368.315 302.411 383.555 281.799 401.589 299.978C401.589 299.978 397.451 310.131 386.508 312.162C375.564 314.186 368.315 302.411 368.315 302.411Z" fill="white"/>
</mask>
<g mask="url(#mask2_3839_59742)">
<path d="M376.528 309.031C377.353 314.846 382.731 318.886 388.546 318.061C394.361 317.237 398.402 311.858 397.577 306.044C396.752 300.229 391.374 296.188 385.559 297.013C379.744 297.838 375.704 303.216 376.528 309.031Z" fill="#2C0C04"/>
</g>
<path d="M401.769 299.443C399.974 296.622 397.382 294.363 394.374 292.721C391.352 291.113 387.762 290.281 384.235 290.655C382.481 290.835 380.749 291.258 379.141 291.923C377.554 292.623 376.015 293.427 374.67 294.481C371.94 296.505 369.708 299.041 368.045 301.876C367.962 302.021 368.01 302.209 368.156 302.292C368.267 302.354 368.405 302.34 368.495 302.271C371.053 300.275 373.562 298.362 376.237 296.9C378.891 295.417 381.698 294.391 384.581 294.1C387.457 293.781 390.396 294.245 393.217 295.292C396.038 296.338 398.768 297.925 401.319 299.831L401.339 299.845C401.471 299.942 401.658 299.914 401.762 299.783C401.838 299.679 401.838 299.547 401.776 299.443H401.769Z" fill="#2C0C04"/>
</g>
<path d="M404.063 297.996C404.631 308.295 401.263 310.513 399.287 312.19C399.287 312.19 397.243 313.86 398.525 316.487C399.606 318.698 402.33 320.59 404.416 320.112" stroke="#2C0C04" stroke-linecap="round" stroke-linejoin="round"/>
<path d="M409.372 317.816C409.372 317.816 410.473 315.869 412.844 317.442" stroke="#2C0C04" stroke-linecap="round" stroke-linejoin="round"/>
<path d="M415.713 318.164C420.565 313.569 414.202 310.18 414.202 310.18" stroke="#2C0C04" stroke-linecap="round" stroke-linejoin="round"/>
<path d="M431.986 366.875C453.699 363.79 466.265 336.602 466.265 336.602C459.826 341.716 451.003 349.118 430.115 355.876L431.993 366.875H431.986Z" fill="#2C0C04"/>
<path d="M482.308 299.565C482.308 299.565 485.642 296.55 484.006 293.556C482.364 290.562 479.723 291.927 479.127 288.531" stroke="#2C0C04" stroke-linecap="round" stroke-linejoin="round"/>
<path d="M480.763 277.183C480.763 277.183 486.516 273.468 489.454 284.883" stroke="#2C0C04" stroke-linecap="round" stroke-linejoin="round"/>
<path d="M443.449 276.499C441.737 274.385 439.859 272.999 437.696 271.842C435.562 270.698 433.226 270.033 430.863 269.686C428.506 269.472 426.101 269.52 423.828 270.04C422.671 270.241 421.597 270.684 420.481 271.01C419.42 271.461 418.381 271.946 417.355 272.479C415.664 273.36 414.985 275.598 415.837 277.483C416.641 279.264 418.526 280.089 420.155 279.445L420.418 279.341C422.137 278.648 423.807 277.899 425.533 277.442C427.245 276.901 428.985 276.659 430.752 276.555C432.519 276.444 434.293 276.693 436.082 277.109C437.828 277.518 439.706 278.315 441.21 279.174L441.481 279.327C442.312 279.805 443.324 279.459 443.733 278.558C444.045 277.871 443.913 277.054 443.463 276.499H443.449Z" fill="#2C0C04"/>
<path d="M448.494 291.029C448.494 291.029 428.118 275.47 415.858 297.953C415.858 297.953 422.657 306.554 433.732 305.459C444.807 304.357 448.494 291.029 448.494 291.029Z" fill="white"/>
<mask id="mask3_3839_59742" style="mask-type:luminance" maskUnits="userSpaceOnUse" x="415" y="285" width="34" height="21">
<path d="M448.494 291.029C448.494 291.029 428.118 275.47 415.858 297.953C415.858 297.953 422.657 306.554 433.732 305.459C444.807 304.357 448.494 291.029 448.494 291.029Z" fill="white"/>
</mask>
<g mask="url(#mask3_3839_59742)">
<path d="M442.214 299.7C443.039 305.515 438.999 310.893 433.184 311.718C427.369 312.542 421.991 308.502 421.166 302.687C420.341 296.872 424.382 291.494 430.197 290.669C436.012 289.845 441.39 293.885 442.214 299.7Z" fill="#2C0C04"/>
</g>
<path d="M416.08 297.733C417.999 295.19 420.176 292.91 422.594 291.115C425.013 289.32 427.709 288.058 430.558 287.566C433.406 287.046 436.386 287.247 439.346 287.933C442.326 288.592 445.264 289.728 448.279 290.934C448.432 290.997 448.612 290.92 448.674 290.768C448.723 290.65 448.688 290.518 448.598 290.435C446.207 288.176 443.359 286.36 440.177 285.175C438.597 284.544 436.899 284.191 435.173 283.962C433.441 283.775 431.66 283.844 429.927 284.163C426.434 284.787 423.211 286.582 420.765 288.966C418.332 291.385 416.475 294.268 415.532 297.484C415.484 297.643 415.574 297.809 415.733 297.858C415.858 297.893 415.983 297.851 416.059 297.754L416.073 297.733H416.08Z" fill="#2C0C04"/>
<path d="M396.827 326.865C396.827 326.865 410.494 326.172 423.69 322.582C423.69 322.582 426.254 339.52 413.003 341.669C401.214 343.582 396.827 326.865 396.827 326.865Z" fill="#2C0C04"/>
<path d="M423.69 322.582C423.69 322.582 410.446 325.805 396.827 326.865C396.827 326.865 401.894 335.667 423.69 322.582Z" fill="white"/>
<path d="M409.316 341.794C409.316 341.794 410.633 332.611 423.648 329.492C423.648 329.492 423.732 334.947 419.081 339.091C415.241 342.508 409.316 341.794 409.316 341.794Z" fill="#E06C6C"/>
<path d="M425.949 215.039C409.191 214.276 405.83 225.012 405.83 225.012C405.83 225.012 400.244 221.193 389.986 226.031C379.729 230.868 380.637 244.709 380.637 244.709C380.637 244.709 377.186 242.616 374.677 249.311C372.168 256.006 378.114 260.074 378.114 260.074C378.204 264.343 380.034 269.888 380.034 269.888C380.471 266.055 381.988 260.76 381.988 260.76C391.116 263.56 396.82 259.866 396.82 259.866C396.82 259.866 390.742 265.112 401.262 268.21C411.783 271.308 424.84 257.004 424.84 257.004C429.373 267.732 444.461 255.922 444.461 255.922C446.644 256.567 448.363 258.203 449.098 260.358C450.123 263.373 452.203 268.363 456.208 274.614C458.71 278.516 460.284 281.379 465.225 283.721C471.061 286.493 472.87 274.614 480.071 270.886C480.071 270.886 479.135 263.692 482.538 256.172C484.43 251.993 483.286 236.441 473.715 234.444C473.715 234.444 466.334 218.289 448.19 221.366C448.19 221.366 442.715 215.801 425.949 215.039Z" fill="#2C0C04"/>
<path d="M425.949 215.039C425.949 215.039 461.212 217.846 466.264 276.603C466.264 276.603 473.167 271.211 479.807 271.114C479.807 271.114 478.005 214.103 425.949 215.039Z" fill="#BACAD6"/>
<path d="M456.451 296.48C459.292 307.797 465.176 319.184 482.829 314.749C498.187 310.888 500.287 297.498 497.445 286.181C494.604 274.863 486.509 264.398 471.151 268.258C456.167 272.021 453.602 285.155 456.444 296.48H456.451Z" fill="#BACAD6"/>
<path d="M468.038 292.689C469.944 300.292 473.721 307.978 484.471 305.282C493.82 302.932 494.908 294.026 493.002 286.424C491.096 278.821 485.981 271.717 476.632 274.066C467.511 276.36 466.132 285.093 468.045 292.689H468.038Z" stroke="#2C0C04" stroke-width="0.75" stroke-linecap="round" stroke-linejoin="round"/>
<path d="M488.116 270.853C488.116 270.853 480.673 263.984 467.241 269.563" stroke="#2C0C04" stroke-width="0.75" stroke-linecap="round" stroke-linejoin="round"/>
<path d="M277.225 751.434H455.896V786.6H277.225V751.434Z" fill="#E06C6C"/>
<path d="M292.736 786.129H471.407V819.576H292.736V786.129Z" fill="#5B74CE"/>
<path d="M291.502 725.543H470.174V751.796H291.502V725.543Z" fill="#E6A861"/>
<path d="M462.169 751.434H343.087" stroke="#2C0C04" stroke-width="0.75" stroke-linecap="round" stroke-linejoin="round"/>
<path d="M304.234 769.021C304.234 774.863 334.028 779.604 370.781 779.604C407.534 779.604 437.329 774.863 437.329 769.021C437.329 763.178 407.534 758.438 370.781 758.438C334.028 758.438 304.234 763.178 304.234 769.021Z" stroke="#2C0C04" stroke-width="0.75" stroke-linecap="round" stroke-linejoin="round"/>
<path d="M437.336 793.895V811.644" stroke="#2C0C04" stroke-width="0.75" stroke-linecap="round" stroke-linejoin="round"/>
<path d="M326.688 793.895V811.644" stroke="#2C0C04" stroke-width="0.75" stroke-linecap="round" stroke-linejoin="round"/>
<path d="M382.071 793.895V811.644" stroke="#2C0C04" stroke-width="0.75" stroke-linecap="round" stroke-linejoin="round"/>
<path d="M444.447 725.543H291.495V746.467" stroke="#2C0C04" stroke-width="0.75" stroke-linecap="round" stroke-linejoin="round"/>
<path d="M453.837 720.163V652.361C453.837 651.162 452.867 650.191 451.668 650.191H382.895C381.696 650.191 380.726 651.162 380.726 652.361V720.163C380.726 723.136 383.131 725.541 386.104 725.541H448.459C451.432 725.541 453.837 723.136 453.837 720.163Z" fill="#5B74CE"/>
<path d="M449.728 650.191H404.554" stroke="#2C0C04" stroke-width="0.75" stroke-linecap="round" stroke-linejoin="round"/>
<path d="M453.838 661.607C453.838 661.607 475.427 659.763 475.427 687.867C475.427 715.971 453.838 712.069 453.838 712.069V703.204C453.838 703.204 467.692 707.938 467.692 687.867C467.692 667.796 453.838 670.533 453.838 670.533V661.607Z" fill="#5B74CE"/>
<path d="M453.838 656.812V715.737" stroke="#2C0C04" stroke-width="0.75" stroke-linecap="round" stroke-linejoin="round"/>
<path d="M435.846 646.118C435.846 646.118 432.748 633.192 436.705 628.639C440.662 624.085 445.486 613.759 438.257 604.811C431.029 595.864 435.506 589.668 435.506 589.668C435.506 589.668 428.963 594.831 435.333 610.495C435.333 610.495 437.398 618.583 430.856 623.919C424.313 629.256 435.846 646.125 435.846 646.125V646.118Z" fill="white"/>
<path d="M411.402 624.528C405.143 627.584 415.518 642.853 415.518 642.853C415.518 642.853 412.961 632.179 416.225 628.423C419.49 624.667 423.468 616.142 417.501 608.754C417.501 608.754 421.451 619.614 411.395 624.521L411.402 624.528Z" fill="white"/>
<path d="M380.311 661.441V715.736" stroke="#2C0C04" stroke-width="0.75" stroke-linecap="round" stroke-linejoin="round"/>
</g>
<defs>
<clipPath id="clip0_3839_59742">
<rect width="761" height="820" fill="white"/>
</clipPath>
</defs>
</svg>
